<svg width="105" height="118" viewBox="0 0 105 118" fill="none" xmlns="http://www.w3.org/2000/svg">
<g filter="url(#filter0_d_16_266)">
<path fill-rule="evenodd" clip-rule="evenodd" d="M90.1442 17.0725C90.1442 19.3216 88.3209 21.1449 86.0718 21.1449H18.0725C15.8233 21.1449 14 19.3216 14 17.0725C14 14.8233 15.8233 13 18.0725 13H86.0718C88.3209 13 90.1442 14.8233 90.1442 17.0725Z" fill="white"/>
<path fill-rule="evenodd" clip-rule="evenodd" d="M90.1442 98.9274C90.1442 101.177 88.3209 103 86.0718 103H18.0725C15.8233 103 14 101.177 14 98.9274C14 96.6782 15.8233 94.8549 18.0725 94.8549H86.0718C88.3209 94.8549 90.1442 96.6782 90.1442 98.9274Z" fill="white"/>
<path d="M60.6383 17.0725L29.2288 57.0483L60.6383 99.8794" stroke="white" stroke-width="8"/>
</g>
<defs>
<filter id="filter0_d_16_266" x="0" y="0" width="104.144" height="118" filterUnits="userSpaceOnUse" color-interpolation-filters="sRGB">
<feFlood flood-opacity="0" result="BackgroundImageFix"/>
<feColorMatrix in="SourceAlpha" type="matrix" values="0 0 0 0 0 0 0 0 0 0 0 0 0 0 0 0 0 0 127 0" result="hardAlpha"/>
<feOffset dy="1"/>
<feGaussianBlur stdDeviation="7"/>
<feComposite in2="hardAlpha" operator="out"/>
<feColorMatrix type="matrix" values="0 0 0 0 1 0 0 0 0 1 0 0 0 0 1 0 0 0 0.55 0"/>
<feBlend mode="normal" in2="BackgroundImageFix" result="effect1_dropShadow_16_266"/>
<feBlend mode="normal" in="SourceGraphic" in2="effect1_dropShadow_16_266" result="shape"/>
</filter>
</defs>
</svg>
