<svg width="19" height="19" viewBox="0 0 19 19" fill="none" xmlns="http://www.w3.org/2000/svg">
<path fill-rule="evenodd" clip-rule="evenodd" d="M9.13586 0C4.09286 0 0 4.09286 0 9.13586C0 14.1788 4.09286 18.2717 9.13586 18.2717C14.1697 18.2717 18.2717 14.1788 18.2717 9.13586C18.2717 4.09286 14.1697 0 9.13586 0ZM15.1701 4.21163C16.2948 5.58118 16.9173 7.29412 16.9345 9.0662C16.6764 9.01709 14.1001 8.49178 11.5043 8.81839C11.4449 8.69048 11.3947 8.55116 11.3353 8.41298C11.1766 8.03613 10.9984 7.65014 10.8203 7.28242C13.6935 6.11417 15.0022 4.42975 15.1712 4.21049L15.1701 4.21163ZM9.13586 1.34754C11.1172 1.34754 12.9307 2.08983 14.309 3.30946C14.1697 3.50817 12.99 5.08296 10.2162 6.12331C8.93715 3.77539 7.52109 1.85229 7.30298 1.55538C7.90378 1.4151 8.51889 1.34534 9.13586 1.34754ZM5.81611 2.08069C6.8618 3.52992 7.82782 5.03499 8.7099 6.58924C5.06355 7.55992 1.84316 7.54051 1.496 7.54051C1.74707 6.35939 2.26758 5.25222 3.01695 4.30537C3.76631 3.35851 4.72427 2.59755 5.81611 2.08183V2.08069ZM1.32813 9.14728V8.90746C1.66501 8.91888 5.45068 8.96799 9.34484 7.7986C9.57209 8.23369 9.77993 8.68021 9.97864 9.12558L9.6703 9.21465C5.64824 10.5131 3.50817 14.0601 3.32888 14.3581C2.04052 12.9279 1.32773 11.0711 1.32813 9.14613V9.14728ZM9.13586 16.9436C7.40181 16.9463 5.71697 16.3673 4.35095 15.2991C4.48799 15.0114 6.0742 11.96 10.4731 10.424C10.4937 10.4137 10.5028 10.4137 10.5234 10.4046C11.265 12.319 11.8221 14.2998 12.1872 16.3201C11.2234 16.7342 10.1849 16.9464 9.13586 16.9436ZM13.4868 15.6063C13.4069 15.1301 12.99 12.8519 11.9703 10.0472C14.4175 9.66117 16.5576 10.295 16.8248 10.384C16.6584 11.4377 16.2758 12.4455 15.7012 13.3443C15.1265 14.243 14.3722 15.0131 13.4857 15.6063H13.4868Z" fill="white"/>
</svg>
