<svg width="18" height="19" viewBox="0 0 18 19" fill="none" xmlns="http://www.w3.org/2000/svg">
<path d="M17.7521 7.48972C17.8586 8.10292 17.9117 8.72421 17.9108 9.34659C17.9108 12.1262 16.9173 14.4764 15.1884 16.0672H15.1906C13.6787 17.4638 11.6003 18.2723 9.13586 18.2723C6.71288 18.2723 4.38914 17.3098 2.67583 15.5965C0.962525 13.8832 0 11.5594 0 9.13646C0 6.71348 0.962525 4.38974 2.67583 2.67643C4.38914 0.963128 6.71288 0.000602837 9.13586 0.000602837C11.4038 -0.0259578 13.594 0.826065 15.2477 2.37821L12.6395 4.9865C11.6966 4.08773 10.4383 3.59555 9.13586 3.61612C6.75254 3.61612 4.72781 5.22403 4.00607 7.38923C3.6234 8.52379 3.6234 9.75255 4.00607 10.8871H4.0095C4.73466 13.0489 6.75597 14.6568 9.13928 14.6568C10.3703 14.6568 11.4278 14.3416 12.2478 13.7843H12.2443C12.7204 13.4689 13.1277 13.0603 13.4415 12.5832C13.7554 12.106 13.9693 11.5703 14.0704 11.0082H9.13586V7.49086H17.7521V7.48972Z" fill="white"/>
</svg>
