<svg width="19" height="19" viewBox="0 0 19 19" fill="none" xmlns="http://www.w3.org/2000/svg">
<path d="M0.666218 3.76016C0.221274 3.34143 0 2.82313 0 2.20643C0 1.58973 0.222458 1.04862 0.666218 0.628693C1.11116 0.209963 1.68391 0 2.38564 0C3.08737 0 3.63765 0.209963 4.08141 0.628693C4.52635 1.04742 4.74762 1.57414 4.74762 2.20643C4.74762 2.83872 4.52517 3.34143 4.08141 3.76016C3.63646 4.17889 3.07199 4.38886 2.38564 4.38886C1.69929 4.38886 1.11116 4.17889 0.666218 3.76016ZM4.37369 6.16216V19H0.372747V6.16216H4.37369Z" fill="white"/>
<path d="M17.6924 7.43036C18.5645 8.3902 19 9.70757 19 11.3849V18.7733H15.2002V11.9056C15.2002 11.0598 14.9837 10.4022 14.5518 9.93432C14.1198 9.4664 13.5376 9.23126 12.8087 9.23126C12.0797 9.23126 11.4975 9.4652 11.0656 9.93432C10.6336 10.4022 10.4171 11.0598 10.4171 11.9056V18.7733H6.59485V6.12618H10.4171V7.80348C10.804 7.24437 11.3259 6.80286 11.9815 6.47771C12.6371 6.15257 13.3743 5.9906 14.1944 5.9906C15.6546 5.9906 16.8214 6.47052 17.6924 7.43036Z" fill="white"/>
</svg>
