<svg width="19" height="19" viewBox="0 0 19 19" fill="none" xmlns="http://www.w3.org/2000/svg">
<path d="M0.499172 8.66103C0.542805 8.63467 0.586459 8.60963 0.629001 8.58591C1.36858 8.17202 2.11798 7.78449 2.86629 7.39696C2.90665 7.39696 2.97427 7.34027 3.01245 7.32182C3.07026 7.2915 3.12808 7.26251 3.1859 7.23219C3.29716 7.1742 3.40843 7.11751 3.5186 7.05951C3.74113 6.94484 3.96256 6.83016 4.18509 6.71549C4.62905 6.48613 5.07302 6.25678 5.51698 6.02611C6.40492 5.56741 7.29396 5.10739 8.1819 4.64868C9.06983 4.18998 9.95885 3.72994 10.8468 3.27124C11.7347 2.81253 12.6237 2.35251 13.5117 1.89381C14.3996 1.4351 15.2886 0.975067 16.1766 0.516361C16.374 0.413548 16.5878 0.260658 16.7994 0.215842C16.9772 0.177616 17.1507 0.103797 17.3296 0.0629352C17.6688 -0.0148339 18.043 -0.0464739 18.368 0.123564C18.4804 0.182879 18.584 0.26592 18.6702 0.370052C19.0825 0.863029 19.0247 1.67236 18.9374 2.36569C18.3299 7.19792 17.7223 12.0315 17.1136 16.8637C17.0307 17.5267 16.9172 18.2543 16.4842 18.6735C16.1177 19.028 15.5962 19.0676 15.1435 18.9173C14.6909 18.7658 14.2916 18.4481 13.9 18.1357C12.2758 16.836 10.6504 15.5364 9.0262 14.2367C8.64004 13.9282 8.21026 13.5249 8.21463 12.9647C8.21681 12.6273 8.38369 12.3267 8.55386 12.0592C9.96539 9.83416 12.002 8.30513 13.5171 6.18296C13.7309 5.88375 13.8989 5.34333 13.6055 5.17065C13.431 5.06784 13.2302 5.20756 13.071 5.3407C11.0682 7.0213 9.06656 8.70321 7.0638 10.3838C6.41039 10.9321 5.72535 11.4963 4.93777 11.6308C4.2331 11.752 3.52406 11.5148 2.8423 11.2722C2.2707 11.0692 1.70018 10.861 1.13186 10.6461C0.829699 10.5328 0.51772 10.4102 0.284282 10.1531C0.050845 9.8961 -0.0833088 9.46377 0.0574081 9.12106C0.145765 8.9062 0.317028 8.77044 0.497015 8.65971L0.499172 8.66103Z" fill="white"/>
</svg>
